<?xml version="1.0" encoding="UTF-8" standalone="no"?>
<!-- Created with Inkscape (http://www.inkscape.org/) -->

<svg
   width="200"
   height="200"
   viewBox="0 0 200 200"
   version="1.1"
   id="svg20030"
   sodipodi:docname="logo2.svg"
   inkscape:version="1.2 (dc2aedaf03, 2022-05-15)"
   xmlns:inkscape="http://www.inkscape.org/namespaces/inkscape"
   xmlns:sodipodi="http://sodipodi.sourceforge.net/DTD/sodipodi-0.dtd"
   xmlns="http://www.w3.org/2000/svg"
   xmlns:svg="http://www.w3.org/2000/svg">
  <sodipodi:namedview
     id="namedview20032"
     pagecolor="#ffffff"
     bordercolor="#666666"
     borderopacity="1.0"
     inkscape:showpageshadow="2"
     inkscape:pageopacity="0.0"
     inkscape:pagecheckerboard="0"
     inkscape:deskcolor="#d1d1d1"
     inkscape:document-units="px"
     showgrid="false"
     inkscape:zoom="3.659624"
     inkscape:cx="94.408606"
     inkscape:cy="55.333553"
     inkscape:window-width="2560"
     inkscape:window-height="1403"
     inkscape:window-x="2560"
     inkscape:window-y="0"
     inkscape:window-maximized="1"
     inkscape:current-layer="layer1" />
  <defs
     id="defs20027" />
  <g
     inkscape:label="Layer 1"
     inkscape:groupmode="layer"
     id="layer1">
    <path
       id="path20291"
       style="fill:none;stroke-width:1.88;stop-color:#000000;stroke:#00aad4;stroke-dasharray:5.63999975,5.63999975;stroke-dashoffset:0"
       d="m 13.397456,50 c 2.769997,-4.797776 8.862478,-6.430251 13.660254,-3.660254 l 9.61931,5.553711 -2.874587,-10.728102 c -1.433856,-5.351223 1.720066,-10.813976 7.071289,-12.247832 5.351224,-1.433855 10.812285,1.71909 12.246141,7.070312 l 7.766148,28.978325 c 0.09198,0.343274 0.162467,0.68674 0.217323,1.029836 l 35.236408,20.34375 c 4.797778,2.769997 6.430248,8.862478 3.660254,13.660254 -2.769995,4.79777 -8.862478,6.43025 -13.660254,3.66025 L 51.103334,83.316504 c -0.324557,0.12404 -0.657253,0.234732 -1.000525,0.326709 L 21.123771,91.406692 C 15.772546,92.840551 10.311485,89.687606 8.8776302,84.33638 7.4437706,78.985163 10.597696,73.522404 15.948915,72.088555 L 26.67702,69.213965 17.05771,63.660254 C 12.259934,60.890257 10.627461,54.797772 13.397456,50 Z" />
    <g
       id="g20265">
      <path
         id="rect20088"
         style="fill:#aaeeff;stroke-width:1.37953;-inkscape-stroke:none;stop-color:#000000"
         d="M 100 0 C 94.460006 0 90 4.4600055 90 10 L 90 21.107422 L 82.146484 13.253906 C 78.229117 9.3365386 71.921274 9.3365386 68.003906 13.253906 C 64.086539 17.171274 64.086539 23.477164 68.003906 27.394531 L 89.216797 48.609375 C 89.468091 48.860669 89.730298 49.093446 90 49.3125 L 90 90 C 90 95.539994 94.460006 100 100 100 C 105.53999 100 110 95.539994 110 90 L 110 49.3125 C 110.2697 49.093446 110.53191 48.860669 110.7832 48.609375 L 131.99609 27.394531 C 135.91346 23.477164 135.91346 17.171274 131.99609 13.253906 C 128.07873 9.3365386 121.77088 9.3365386 117.85352 13.253906 L 110 21.107422 L 110 10 C 110 4.4600055 105.53999 0 100 0 z " />
      <path
         id="path20261"
         style="fill:#aaeeff;stroke-width:1.37953;-inkscape-stroke:none;stop-color:#000000"
         d="m 100,200 c -5.539994,0 -10,-4.46 -10,-10 v -11.10742 l -7.853516,7.85352 c -3.917367,3.91736 -10.22521,3.91736 -14.142578,0 -3.917367,-3.91737 -3.917367,-10.22326 0,-14.14063 L 89.216797,151.39063 C 89.468091,151.13933 89.730298,150.90656 90,150.6875 V 110 c 0,-5.53999 4.460006,-10 10,-10 5.53999,0 10,4.46001 10,10 v 40.6875 c 0.2697,0.21906 0.53191,0.45183 0.7832,0.70313 l 21.21289,21.21484 c 3.91737,3.91737 3.91737,10.22326 0,14.14063 -3.91736,3.91736 -10.22521,3.91736 -14.14257,0 L 110,178.89258 V 190 c 0,5.54 -4.46001,10 -10,10 z" />
    </g>
    <g
       id="g20271">
      <path
         id="path20267"
         style="fill:#aaeeff;stroke-width:1.37953;-inkscape-stroke:none;stop-color:#000000"
         d="M 100,0 C 94.460006,0 90,4.4600055 90,10 v 11.107422 l -7.853516,-7.853516 c -3.917367,-3.9173674 -10.22521,-3.9173674 -14.142578,0 -3.917367,3.917368 -3.917367,10.223258 0,14.140625 L 89.216797,48.609375 C 89.468091,48.860669 89.730298,49.093446 90,49.3125 v 51.728 h 20 v -51.728 c 0.2697,-0.219054 0.53191,-0.451831 0.7832,-0.703125 l 21.21289,-21.214844 c 3.91737,-3.917367 3.91737,-10.223257 0,-14.140625 -3.91736,-3.9173674 -10.22521,-3.9173674 -14.14257,0 L 110,21.107422 V 10 C 110,4.4600055 105.53999,0 100,0 Z"
         sodipodi:nodetypes="sscssccccccccsscss" />
      <path
         id="path20269"
         style="fill:#aaeeff;stroke-width:1.37953;-inkscape-stroke:none;stop-color:#000000"
         d="m 100,200 c -5.539994,0 -10,-4.46 -10,-10 v -11.10742 l -7.853516,7.85352 c -3.917367,3.91736 -10.22521,3.91736 -14.142578,0 -3.917367,-3.91737 -3.917367,-10.22326 0,-14.14063 L 89.216797,151.39063 C 89.468091,151.13933 89.730298,150.90656 90,150.6875 V 110 c 0,-5.53999 4.460006,-10 10,-10 5.53999,0 10,4.46001 10,10 v 40.6875 c 0.2697,0.21906 0.53191,0.45183 0.7832,0.70313 l 21.21289,21.21484 c 3.91737,3.91737 3.91737,10.22326 0,14.14063 -3.91736,3.91736 -10.22521,3.91736 -14.14257,0 L 110,178.89258 V 190 c 0,5.54 -4.46001,10 -10,10 z" />
    </g>
    <g
       id="g20277"
       transform="rotate(60,99.999999,100)">
      <path
         id="path20273"
         style="fill:#aaeeff;stroke-width:1.37953;-inkscape-stroke:none;stop-color:#000000"
         d="M 100,0 C 94.460006,0 90,4.4600055 90,10 v 11.107422 l -7.853516,-7.853516 c -3.917367,-3.9173674 -10.22521,-3.9173674 -14.142578,0 -3.917367,3.917368 -3.917367,10.223258 0,14.140625 L 89.216797,48.609375 C 89.468091,48.860669 89.730298,49.093446 90,49.3125 V 90 c 0,5.539994 4.460006,10 10,10 5.53999,0 10,-4.460006 10,-10 V 49.3125 c 0.2697,-0.219054 0.53191,-0.451831 0.7832,-0.703125 l 21.21289,-21.214844 c 3.91737,-3.917367 3.91737,-10.223257 0,-14.140625 -3.91736,-3.9173674 -10.22521,-3.9173674 -14.14257,0 L 110,21.107422 V 10 C 110,4.4600055 105.53999,0 100,0 Z" />
      <path
         id="path20275"
         style="fill:#aaeeff;stroke-width:1.37953;-inkscape-stroke:none;stop-color:#000000"
         d="m 100,200 c -5.539994,0 -10,-4.46 -10,-10 l 0,-11.10742 -7.853516,7.85352 c -3.917367,3.91736 -10.22521,3.91736 -14.142578,0 -3.917367,-3.91737 -3.917367,-10.22326 0,-14.14063 L 89.216797,151.39063 C 89.468091,151.13933 89.730298,150.90656 90,150.6875 V 110 c 0,-21.63479 4.460006,-10 10,-10 5.53999,0 10,4.46001 10,10 v 40.6875 c 0.2697,0.21906 0.53191,0.45183 0.7832,0.70313 l 21.21289,21.21484 c 3.91737,3.91737 3.91737,10.22326 0,14.14063 -3.91736,3.91736 -10.22521,3.91736 -14.14257,0 L 110,178.89258 110,190 c 0,5.54 -4.46001,10 -10,10 z"
         sodipodi:nodetypes="sscsscccssscccsscss" />
    </g>
    <path
       id="path20293"
       style="fill:#aaeeff;stroke-width:1.37953;-inkscape-stroke:none;stop-color:#000000"
       d="m 186.60254,150 c 2.76999,-4.79778 1.13752,-10.89025 -3.66026,-13.66025 l -9.61931,-5.55371 10.72811,-2.87459 c 5.35122,-1.43386 8.50514,-6.89661 7.07129,-12.24783 -1.43386,-5.35122 -6.89492,-8.50417 -12.24615,-7.07032 l -28.97903,7.76349 c -0.34328,0.092 -0.67597,0.20267 -1.00053,0.32671 L 113.66025,96.339746 C 108.86248,93.569751 102.76999,95.202224 99.999996,100 c -2.769995,4.79777 -1.137518,10.89026 3.660254,13.66025 l 35.23641,20.34375 c 0.0549,0.3431 0.12534,0.68657 0.21733,1.02984 l 7.76614,28.97832 c 1.43386,5.35123 6.89492,8.50417 12.24615,7.07032 5.35121,-1.43386 8.50514,-6.89661 7.07128,-12.24783 l -2.87459,-10.72811 9.61931,5.55371 c 4.79778,2.77 10.89026,1.13752 13.66026,-3.66025 z" />
  </g>
</svg>
